<svg width="20" height="20" viewBox="0 0 20 20" fill="none" xmlns="http://www.w3.org/2000/svg">
<g clip-path="url(#clip0_82_197)">
<path fill-rule="evenodd" clip-rule="evenodd" d="M10.2954 4.99139L9.70543 5.58055C9.667 5.62035 9.62102 5.65209 9.57019 5.67393C9.51935 5.69577 9.46468 5.70726 9.40935 5.70774C9.35403 5.70822 9.29916 5.69768 9.24795 5.67673C9.19675 5.65578 9.15022 5.62484 9.1111 5.58572C9.07198 5.5466 9.04104 5.50007 9.02009 5.44887C8.99914 5.39766 8.9886 5.34279 8.98908 5.28747C8.98956 5.23214 9.00105 5.17747 9.02289 5.12663C9.04473 5.0758 9.07647 5.02982 9.11627 4.99139L9.70543 4.40222C9.78356 4.32398 9.88957 4.27998 10.0001 4.2799C10.0549 4.27987 10.1091 4.29061 10.1597 4.31153C10.2103 4.33244 10.2563 4.36312 10.295 4.4018C10.3338 4.44049 10.3645 4.48642 10.3855 4.53699C10.4065 4.58756 10.4173 4.64176 10.4173 4.69651C10.4174 4.75126 10.4066 4.80548 10.3857 4.85607C10.3648 4.90667 10.3341 4.95265 10.2954 4.99139ZM7.93793 3.81222C7.59821 4.15179 7.38626 4.59833 7.33797 5.07623C7.28968 5.55414 7.40801 6.03405 7.67293 6.43472L6.43543 7.67222C6.03476 7.4073 5.55485 7.28896 5.07695 7.33726C4.59904 7.38555 4.15251 7.59749 3.81293 7.93722L3.22377 8.52639C2.87449 8.87558 2.66062 9.3375 2.62033 9.82974C2.58003 10.322 2.71593 10.8125 3.00377 11.2139C2.46622 12.0158 2.22371 12.9795 2.31763 13.9403C2.41155 14.9011 2.83608 15.7996 3.51873 16.4823C4.20139 17.1649 5.09984 17.5894 6.06068 17.6834C7.02152 17.7773 7.98517 17.5348 8.7871 16.9972C9.18847 17.2847 9.6789 17.4204 10.171 17.3799C10.663 17.3395 11.1247 17.1256 11.4738 16.7764L12.0629 16.1864C12.4025 15.8469 12.6143 15.4005 12.6626 14.9228C12.7108 14.4451 12.5926 13.9653 12.3279 13.5647L13.5654 12.3272C13.9662 12.5918 14.446 12.71 14.9239 12.6617C15.4017 12.6134 15.8482 12.4017 16.1879 12.0622L16.7771 11.4731C17.1264 11.1239 17.3402 10.6619 17.3805 10.1697C17.4208 9.67745 17.2849 9.1869 16.9971 8.78555C17.5338 7.98367 17.7756 7.02043 17.6814 6.06015C17.5872 5.09986 17.1627 4.202 16.4804 3.51971C15.7982 2.83742 14.9003 2.41297 13.94 2.31875C12.9797 2.22454 12.0165 2.46639 11.2146 3.00305C10.8133 2.71521 10.3227 2.57932 9.83046 2.61961C9.33821 2.65991 8.87629 2.87377 8.5271 3.22305L7.93793 3.81222ZM10.2954 14.4189C10.3339 14.3791 10.3798 14.3473 10.4307 14.3255C10.4815 14.3037 10.5362 14.2922 10.5915 14.2917C10.6468 14.2912 10.7017 14.3018 10.7529 14.3227C10.8041 14.3437 10.8506 14.3746 10.8898 14.4137C10.9289 14.4528 10.9598 14.4994 10.9808 14.5506C11.0017 14.6018 11.0123 14.6566 11.0118 14.712C11.0113 14.7673 10.9998 14.822 10.978 14.8728C10.9561 14.9236 10.9244 14.9696 10.8846 15.0081L10.2954 15.5972C10.2173 15.6755 10.1113 15.7195 10.0007 15.7195C9.89016 15.7196 9.78409 15.6758 9.70585 15.5976C9.62761 15.5195 9.58361 15.4135 9.58353 15.3029C9.58346 15.1924 9.6273 15.0863 9.70543 15.0081L10.2954 14.4189ZM10.8846 12.6514L12.6521 10.8847C12.5795 10.3796 12.6949 9.86543 12.9763 9.43972L10.5596 7.02389C10.1347 7.30495 9.6215 7.42057 9.1171 7.34889L7.34877 9.11555C7.42112 9.62039 7.30578 10.1342 7.0246 10.5597L9.44127 12.9756C9.86641 12.6943 10.3799 12.5787 10.8846 12.6506V12.6514ZM8.2621 14.1539L5.84627 11.7372C5.43221 12.0111 4.93396 12.1281 4.44127 12.0672C4.09122 12.5488 3.9245 13.1394 3.9711 13.7329C4.01769 14.3264 4.27455 14.8838 4.69545 15.3048C5.11635 15.7258 5.67368 15.9828 6.26716 16.0295C6.86064 16.0762 7.45132 15.9096 7.93293 15.5597C7.87157 15.0669 7.98831 14.5683 8.2621 14.1539ZM14.1546 8.26139C14.569 7.98759 15.0676 7.87086 15.5604 7.93222C15.9099 7.45064 16.0761 6.86023 16.0292 6.26708C15.9824 5.67394 15.7255 5.11695 15.3048 4.69623C14.884 4.2755 14.327 4.01862 13.7339 3.97176C13.1408 3.9249 12.5503 4.09112 12.0688 4.44055C12.1297 4.93325 12.0127 5.4315 11.7388 5.84555L14.1546 8.26139ZM14.4196 10.2947L15.0088 9.70472C15.0869 9.62648 15.1929 9.58248 15.3035 9.5824C15.3582 9.58236 15.4124 9.59311 15.463 9.61403C15.5136 9.63494 15.5596 9.66562 15.5984 9.7043C15.6371 9.74299 15.6678 9.78892 15.6888 9.83949C15.7098 9.89006 15.7206 9.94426 15.7207 9.99901C15.7207 10.0538 15.71 10.108 15.689 10.1586C15.6681 10.2092 15.6375 10.2551 15.5988 10.2939L15.0096 10.8831C14.9709 10.9218 14.925 10.9525 14.8744 10.9735C14.8238 10.9945 14.7696 11.0053 14.7149 11.0054C14.6601 11.0054 14.6059 10.9947 14.5553 10.9737C14.5047 10.9528 14.4588 10.9222 14.42 10.8835C14.3813 10.8448 14.3505 10.7988 14.3295 10.7483C14.3086 10.6977 14.2977 10.6435 14.2977 10.5888C14.2977 10.534 14.3084 10.4798 14.3293 10.4292C14.3502 10.3786 14.3809 10.3326 14.4196 10.2939V10.2947ZM4.9921 10.2947C4.95336 10.3334 4.90738 10.3641 4.85678 10.385C4.80619 10.4059 4.75197 10.4167 4.69722 10.4166C4.58665 10.4165 4.48064 10.3725 4.40252 10.2943C4.32439 10.2161 4.28054 10.11 4.28062 9.99942C4.2807 9.88886 4.32469 9.78285 4.40293 9.70472L4.9921 9.11555C5.03054 9.07576 5.07651 9.04401 5.12735 9.02218C5.17818 9.00034 5.23286 8.98885 5.28818 8.98836C5.34351 8.98788 5.39837 8.99843 5.44958 9.01938C5.50079 9.04033 5.54731 9.07127 5.58643 9.11039C5.62555 9.14951 5.65649 9.19603 5.67744 9.24724C5.69839 9.29844 5.70893 9.35331 5.70845 9.40864C5.70797 9.46396 5.69648 9.51864 5.67464 9.56947C5.6528 9.62031 5.62106 9.66628 5.58127 9.70472L4.9921 10.2947Z" fill="#212121"/>
</g>
<defs>
<clipPath id="clip0_82_197">
<rect width="20" height="20" fill="white"/>
</clipPath>
</defs>
</svg>
