<svg width="920" height="166" viewBox="0 0 920 166" fill="none" xmlns="http://www.w3.org/2000/svg">
<g opacity="0.06">
<g clip-path="url(#clip0_82_548)">
<path d="M20.75 134.875V145.25C20.75 149.377 22.3896 153.336 25.3082 156.254C28.2267 159.173 32.1851 160.812 36.3125 160.812C40.4399 160.812 44.3983 159.173 47.3168 156.254C50.2354 153.336 51.875 149.377 51.875 145.25V134.875M114.125 134.875V145.25C114.125 149.377 115.765 153.336 118.683 156.254C121.602 159.173 125.56 160.812 129.687 160.812C133.815 160.812 137.773 159.173 140.692 156.254C143.61 153.336 145.25 149.377 145.25 145.25V134.875M62.25 98.5625H103.75M134.875 57.0625H31.125M134.875 57.0625L149.545 71.7328C151.473 73.6599 153.002 75.9481 154.045 78.4665C155.089 80.9848 155.625 83.684 155.625 86.4099V108.937C155.625 111.689 154.532 114.328 152.586 116.274C150.641 118.219 148.002 119.312 145.25 119.312H20.75C17.9984 119.312 15.3595 118.219 13.4138 116.274C11.4681 114.328 10.375 111.689 10.375 108.937V86.4099C10.3747 83.684 10.9114 80.9848 11.9546 78.4665C12.9978 75.9481 14.527 73.6599 16.4547 71.7328L31.125 57.0625M134.875 57.0625V15.5625C134.875 12.8109 133.782 10.172 131.836 8.22627C129.891 6.28058 127.252 5.1875 124.5 5.1875H41.5C38.7484 5.1875 36.1095 6.28058 34.1638 8.22627C32.2181 10.172 31.125 12.8109 31.125 15.5625V57.0625M134.875 57.0625H145.25C148.002 57.0625 150.641 55.9694 152.586 54.0237C154.532 52.078 155.625 49.4391 155.625 46.6875V36.3125C155.625 33.5609 154.532 30.922 152.586 28.9763C150.641 27.0306 148.002 25.9375 145.25 25.9375H134.875V57.0625ZM31.125 57.0625H20.75C17.9984 57.0625 15.3595 55.9694 13.4138 54.0237C11.4681 52.078 10.375 49.4391 10.375 46.6875V36.3125C10.375 33.5609 11.4681 30.922 13.4138 28.9763C15.3595 27.0306 17.9984 25.9375 20.75 25.9375H31.125V57.0625ZM83 5.1875V57.0625M12.2425 77.8125H153.757" stroke="url(#paint0_linear_82_548)" stroke-width="12.1042" stroke-linecap="round" stroke-linejoin="round"/>
<path d="M31.125 101.156C30.4371 101.156 29.7774 100.883 29.2909 100.397C28.8045 99.9101 28.5312 99.2504 28.5312 98.5625C28.5312 97.8746 28.8045 97.2149 29.2909 96.7284C29.7774 96.242 30.4371 95.9688 31.125 95.9688M31.125 101.156C31.8129 101.156 32.4726 100.883 32.9591 100.397C33.4455 99.9101 33.7187 99.2504 33.7187 98.5625C33.7187 97.8746 33.4455 97.2149 32.9591 96.7284C32.4726 96.242 31.8129 95.9688 31.125 95.9688M134.875 101.156C134.187 101.156 133.527 100.883 133.041 100.397C132.555 99.9101 132.281 99.2504 132.281 98.5625C132.281 97.8746 132.555 97.2149 133.041 96.7284C133.527 96.242 134.187 95.9688 134.875 95.9688M134.875 101.156C135.563 101.156 136.223 100.883 136.709 100.397C137.195 99.9101 137.469 99.2504 137.469 98.5625C137.469 97.8746 137.195 97.2149 136.709 96.7284C136.223 96.242 135.563 95.9688 134.875 95.9688" stroke="url(#paint1_linear_82_548)" stroke-width="12.1042"/>
</g>
<path d="M248.354 133L226.913 32.155H250.706L259.974 82.785L264.401 109.483H265.508L281.416 32.155H307.838L324.161 109.76H325.129L329.279 83.0617L338.271 32.155H362.064L340.623 133H311.019L295.111 61.205H294.143L277.819 133H248.354ZM388.886 134.245C384.459 134.245 380.401 133.461 376.713 131.893C373.116 130.326 369.98 127.928 367.306 124.7C364.724 121.472 362.741 117.461 361.358 112.665C359.974 107.869 359.283 102.29 359.283 95.9267C359.283 87.35 360.481 80.2489 362.879 74.6233C365.369 68.9056 368.828 64.6172 373.254 61.7583C377.773 58.8994 382.984 57.47 388.886 57.47C392.759 57.47 396.218 58.0694 399.261 59.2683C402.396 60.4672 405.071 62.1272 407.284 64.2483C409.59 66.3694 411.296 68.8594 412.403 71.7183H413.509L414.339 58.8533H433.844V133H413.509V119.997H412.403C410.743 124.331 407.838 127.789 403.688 130.372C399.538 132.954 394.604 134.245 388.886 134.245ZM396.633 117.783C400.414 117.783 403.503 116.907 405.901 115.155C408.391 113.403 410.235 111.143 411.434 108.377C412.633 105.518 413.233 102.521 413.233 99.385V92.33C413.233 89.1022 412.633 86.105 411.434 83.3383C410.235 80.5717 408.391 78.3122 405.901 76.56C403.503 74.8078 400.414 73.9317 396.633 73.9317C393.313 73.9317 390.408 74.7156 387.918 76.2833C385.428 77.8511 383.491 80.2489 382.108 83.4767C380.724 86.7044 380.033 90.8544 380.033 95.9267C380.033 100.814 380.724 104.918 382.108 108.238C383.491 111.466 385.428 113.864 387.918 115.432C390.408 116.999 393.313 117.783 396.633 117.783ZM447.098 133V58.8533H466.603L467.433 72.2717H468.263C470.292 67.2917 473.428 63.6028 477.67 61.205C481.912 58.715 486.662 57.47 491.918 57.47C495.607 57.47 499.019 58.0694 502.155 59.2683C505.383 60.375 508.149 62.1272 510.455 64.525C512.853 66.9228 514.697 70.1044 515.988 74.07C517.372 77.9433 518.063 82.6467 518.063 88.18V133H497.728V92.6067C497.728 88.4567 497.221 84.9983 496.207 82.2317C495.284 79.465 493.809 77.4361 491.78 76.145C489.751 74.7617 487.077 74.07 483.757 74.07C480.252 74.07 477.301 74.9 474.903 76.56C472.505 78.22 470.661 80.3872 469.37 83.0617C468.079 85.7361 467.433 88.6411 467.433 91.7767V133H447.098ZM555.799 134.245C551.372 134.245 547.315 133.461 543.626 131.893C540.029 130.326 536.894 127.928 534.219 124.7C531.637 121.472 529.654 117.461 528.271 112.665C526.887 107.869 526.196 102.29 526.196 95.9267C526.196 87.35 527.395 80.2489 529.792 74.6233C532.282 68.9056 535.741 64.6172 540.167 61.7583C544.686 58.8994 549.897 57.47 555.799 57.47C559.672 57.47 563.131 58.0694 566.174 59.2683C569.31 60.4672 571.984 62.1272 574.197 64.2483C576.503 66.3694 578.209 68.8594 579.316 71.7183H580.422V32.155H600.757V133H581.114L580.422 119.997H579.316C577.656 124.331 574.751 127.789 570.601 130.372C566.451 132.954 561.517 134.245 555.799 134.245ZM563.546 117.783C567.327 117.783 570.416 116.907 572.814 115.155C575.304 113.403 577.149 111.143 578.347 108.377C579.546 105.518 580.146 102.521 580.146 99.385V92.33C580.146 89.9322 579.823 87.6267 579.177 85.4133C578.532 83.2 577.517 81.2633 576.134 79.6033C574.751 77.8511 572.999 76.4678 570.877 75.4533C568.756 74.4389 566.312 73.9317 563.546 73.9317C560.226 73.9317 557.321 74.7156 554.831 76.2833C552.341 77.8511 550.404 80.2489 549.021 83.4767C547.637 86.7044 546.946 90.8544 546.946 95.9267C546.946 100.814 547.637 104.918 549.021 108.238C550.404 111.466 552.341 113.864 554.831 115.432C557.321 116.999 560.226 117.783 563.546 117.783ZM645.966 134.383C638.22 134.383 631.626 132.816 626.185 129.68C620.836 126.544 616.732 122.118 613.873 116.4C611.014 110.682 609.585 104.042 609.585 96.48C609.585 88.4567 611.014 81.54 613.873 75.73C616.824 69.92 620.928 65.4472 626.185 62.3117C631.534 59.0839 637.851 57.47 645.136 57.47C653.621 57.47 660.538 59.3144 665.886 63.0033C671.328 66.6922 675.247 71.7644 677.645 78.22C680.043 84.6756 680.826 92.0533 679.996 100.353H629.505C629.505 104.411 630.15 107.869 631.441 110.728C632.825 113.495 634.761 115.57 637.251 116.953C639.741 118.337 642.646 119.028 645.966 119.028C649.748 119.028 652.929 118.152 655.511 116.4C658.094 114.648 659.754 112.342 660.491 109.483H679.581C679.028 114.556 677.23 118.982 674.186 122.763C671.143 126.452 667.178 129.311 662.29 131.34C657.494 133.369 652.053 134.383 645.966 134.383ZM629.505 89.7017L627.706 87.765H662.013L660.076 89.7017C660.261 85.8283 659.708 82.6928 658.416 80.295C657.218 77.805 655.465 75.9144 653.16 74.6233C650.946 73.3322 648.272 72.6867 645.136 72.6867C642.001 72.6867 639.234 73.3783 636.836 74.7617C634.531 76.0528 632.733 77.9894 631.441 80.5717C630.243 83.0617 629.597 86.105 629.505 89.7017ZM689.16 133V58.8533H707.558L708.388 70.75H709.08C710.74 65.9544 713.368 62.6344 716.965 60.79C720.654 58.8533 724.85 57.885 729.553 57.885C730.383 57.885 731.121 57.885 731.767 57.885C732.412 57.885 733.058 57.885 733.703 57.885V76.975C733.242 76.975 732.597 76.975 731.767 76.975C730.937 76.975 730.061 76.975 729.138 76.975C724.619 76.975 720.931 77.6667 718.072 79.05C715.213 80.3411 713.092 82.2778 711.708 84.86C710.325 87.4422 709.587 90.5778 709.495 94.2667V133H689.16ZM786.327 134.245C778.488 134.245 771.479 133.046 765.301 130.648C759.122 128.158 753.865 124.654 749.531 120.135C745.288 115.524 742.014 110.037 739.709 103.673C737.496 97.31 736.389 90.255 736.389 82.5083C736.389 74.3006 737.588 67.015 739.986 60.6517C742.476 54.2883 745.934 48.8933 750.361 44.4667C754.879 40.04 760.228 36.6739 766.407 34.3683C772.678 32.0628 779.641 30.91 787.296 30.91C796.333 30.91 804.172 32.3856 810.812 35.3367C817.544 38.1956 822.893 42.2533 826.859 47.51C830.917 52.7667 833.314 58.9456 834.052 66.0467H811.919C811.181 62.5422 809.659 59.545 807.354 57.055C805.141 54.565 802.328 52.6744 798.916 51.3833C795.503 50 791.63 49.3083 787.296 49.3083C781.486 49.3083 776.413 50.5533 772.079 53.0433C767.744 55.4411 764.378 59.13 761.981 64.11C759.675 68.9978 758.522 75.1306 758.522 82.5083C758.522 88.0417 759.168 92.9294 760.459 97.1717C761.75 101.414 763.641 104.964 766.131 107.823C768.621 110.59 771.572 112.711 774.984 114.187C778.488 115.57 782.408 116.262 786.742 116.262C792.368 116.262 797.209 115.293 801.267 113.357C805.417 111.328 808.599 108.423 810.812 104.642C813.026 100.861 814.132 96.4339 814.132 91.3617V87.4883L820.081 94.5433H786.327V79.1883H835.851V88.8717C835.851 95.7883 834.652 102.059 832.254 107.685C829.948 113.218 826.628 117.968 822.294 121.933C817.959 125.899 812.749 128.942 806.662 131.063C800.576 133.184 793.797 134.245 786.327 134.245ZM878.591 134.245C872.966 134.245 867.893 133.415 863.375 131.755C858.856 130.003 854.936 127.467 851.616 124.147C848.296 120.827 845.76 116.815 844.008 112.112C842.256 107.316 841.38 101.921 841.38 95.9267C841.38 88.2722 842.855 81.5861 845.806 75.8683C848.757 70.0583 853 65.5394 858.533 62.3117C864.066 59.0839 870.752 57.47 878.591 57.47C884.125 57.47 889.151 58.3461 893.67 60.0983C898.188 61.8506 902.062 64.3867 905.29 67.7067C908.61 71.0267 911.146 75.0383 912.898 79.7417C914.742 84.445 915.665 89.84 915.665 95.9267C915.665 103.489 914.189 110.175 911.238 115.985C908.287 121.703 904.045 126.176 898.511 129.403C893.07 132.631 886.43 134.245 878.591 134.245ZM878.453 117.783C881.773 117.783 884.678 116.999 887.168 115.432C889.75 113.772 891.687 111.328 892.978 108.1C894.361 104.872 895.053 100.814 895.053 95.9267C895.053 92.2378 894.684 89.0561 893.946 86.3817C893.208 83.615 892.102 81.3094 890.626 79.465C889.151 77.6206 887.398 76.2833 885.37 75.4533C883.341 74.5311 881.081 74.07 878.591 74.07C875.271 74.07 872.32 74.8539 869.738 76.4217C867.248 77.9894 865.311 80.3872 863.928 83.615C862.545 86.8428 861.853 90.9467 861.853 95.9267C861.853 99.6156 862.222 102.843 862.96 105.61C863.79 108.284 864.942 110.544 866.418 112.388C867.893 114.141 869.646 115.478 871.675 116.4C873.703 117.322 875.963 117.783 878.453 117.783Z" fill="url(#paint2_linear_82_548)"/>
</g>
<defs>
<linearGradient id="paint0_linear_82_548" x1="10.375" y1="83" x2="155.625" y2="83" gradientUnits="userSpaceOnUse">
<stop stop-color="white"/>
<stop offset="1" stop-color="#999999"/>
</linearGradient>
<linearGradient id="paint1_linear_82_548" x1="28.5312" y1="98.5625" x2="137.469" y2="98.5625" gradientUnits="userSpaceOnUse">
<stop stop-color="white"/>
<stop offset="1" stop-color="#999999"/>
</linearGradient>
<linearGradient id="paint2_linear_82_548" x1="225.944" y1="83" x2="919.944" y2="83" gradientUnits="userSpaceOnUse">
<stop stop-color="white"/>
<stop offset="1" stop-color="#999999"/>
</linearGradient>
<clipPath id="clip0_82_548">
<rect width="166" height="166" fill="white"/>
</clipPath>
</defs>
</svg>
