<svg width="24" height="20" viewBox="0 0 24 20" fill="none" xmlns="http://www.w3.org/2000/svg">
<g clip-path="url(#clip0_82_226)">
<path fill-rule="evenodd" clip-rule="evenodd" d="M11.206 3.74182C12.0446 4.16107 12.9822 4.42418 13.9544 4.51307C14.9265 4.60197 15.9102 4.51455 16.838 4.25682L18.418 3.81765L17.11 7.09182C16.9978 7.37216 17.0084 7.67655 17.14 7.95098L18.679 11.156L16.207 11.8427C15.553 12.0242 14.8595 12.0858 14.1743 12.0231C13.489 11.9604 12.8282 11.7749 12.237 11.4793C11.3045 11.0129 10.251 10.7403 9.1655 10.6844C8.07998 10.6286 6.99427 10.7912 6 11.1585V4.15182C6.00012 4.06062 6.03067 3.97125 6.08824 3.8937C6.14581 3.81614 6.22813 3.75346 6.326 3.71265C7.893 3.06015 9.659 2.96848 11.206 3.74182ZM4 5.83348V4.15182C4 3.33515 4.554 2.58765 5.431 2.22182C7.607 1.31515 10.105 1.24765 12.235 2.31265C12.8262 2.6082 13.487 2.79369 14.1723 2.8564C14.8575 2.91912 15.551 2.85757 16.205 2.67598L19.494 1.76265C19.6876 1.70903 19.8953 1.70135 20.0939 1.74046C20.2925 1.77958 20.4741 1.86394 20.6184 1.98413C20.7627 2.10432 20.8641 2.2556 20.9112 2.42104C20.9583 2.58649 20.9492 2.75959 20.885 2.92098L19.065 7.47432L20.889 11.2752C20.9447 11.3911 20.9713 11.5153 20.9673 11.6401C20.9633 11.765 20.9287 11.8878 20.8657 12.0011C20.8027 12.1144 20.7126 12.2158 20.6008 12.299C20.4891 12.3823 20.3581 12.4456 20.216 12.4852L16.838 13.4235C15.9102 13.6812 14.9265 13.7686 13.9544 13.6797C12.9822 13.5908 12.0446 13.3277 11.206 12.9085C10.5165 12.5637 9.73374 12.3693 8.93019 12.3436C8.12665 12.3178 7.32828 12.4614 6.609 12.761L6 13.0152V17.5001C6 17.7212 5.89464 17.9331 5.70711 18.0894C5.51957 18.2457 5.26522 18.3335 5 18.3335C4.73478 18.3335 4.48043 18.2457 4.29289 18.0894C4.10536 17.9331 4 17.7212 4 17.5001V12.5002V5.83348Z" fill="#777777"/>
</g>
<defs>
<clipPath id="clip0_82_226">
<rect width="24" height="20" fill="white"/>
</clipPath>
</defs>
</svg>
