<svg width="32" height="32" viewBox="0 0 32 32" fill="none" xmlns="http://www.w3.org/2000/svg">
<g clip-path="url(#clip0_82_417)">
<path d="M16.0003 2.66602C23.3643 2.66602 29.3337 8.63535 29.3337 15.9993C29.3337 23.3633 23.3643 29.3327 16.0003 29.3327C8.63633 29.3327 2.66699 23.3633 2.66699 15.9993C2.66699 8.63535 8.63633 2.66602 16.0003 2.66602ZM16.0003 5.33268C13.1713 5.33268 10.4582 6.45649 8.45785 8.45688C6.45747 10.4573 5.33366 13.1704 5.33366 15.9993C5.33366 18.8283 6.45747 21.5414 8.45785 23.5418C10.4582 25.5422 13.1713 26.666 16.0003 26.666C18.8293 26.666 21.5424 25.5422 23.5428 23.5418C25.5432 21.5414 26.667 18.8283 26.667 15.9993C26.667 13.1704 25.5432 10.4573 23.5428 8.45688C21.5424 6.45649 18.8293 5.33268 16.0003 5.33268ZM22.6003 9.39935C23.127 9.92735 23.1297 10.706 23.0483 11.4127L22.999 11.79C22.7857 13.2833 22.1923 15.49 21.343 17.3313C20.9297 18.2273 20.4097 19.1327 19.771 19.7713C19.1337 20.4073 18.2297 20.9287 17.331 21.342C15.491 22.1913 13.2843 22.7847 11.791 22.998L11.415 23.0473C10.7083 23.1273 9.92433 23.122 9.40166 22.5993C8.92566 22.1233 8.87766 21.4327 8.93366 20.7793L8.97632 20.3927L9.00166 20.2087C9.21499 18.7153 9.80833 16.5087 10.6577 14.6673C11.071 13.7713 11.591 12.866 12.2297 12.2273C12.867 11.59 13.7723 11.07 14.6697 10.6567C16.5097 9.80735 18.7163 9.21402 20.2097 9.00068L20.5857 8.95135C21.2923 8.87135 22.0723 8.87135 22.599 9.39935H22.6003ZM20.3177 11.682C19.107 11.8887 17.2203 12.4153 15.7843 13.078C14.9883 13.446 14.4203 13.8087 14.115 14.114C13.8083 14.4193 13.447 14.9873 13.079 15.7833C12.4177 17.2193 11.8897 19.106 11.683 20.3167C12.8937 20.11 14.7803 19.5833 16.2163 18.9207C17.0123 18.5527 17.5803 18.19 17.8857 17.8847C18.1923 17.5793 18.555 17.0113 18.9217 16.2153C19.583 14.7793 20.1123 12.8927 20.3177 11.682ZM16.0003 14.666C16.3539 14.666 16.6931 14.8065 16.9431 15.0565C17.1932 15.3066 17.3337 15.6457 17.3337 15.9993C17.3337 16.353 17.1932 16.6921 16.9431 16.9422C16.6931 17.1922 16.3539 17.3327 16.0003 17.3327C15.6467 17.3327 15.3076 17.1922 15.0575 16.9422C14.8075 16.6921 14.667 16.353 14.667 15.9993C14.667 15.6457 14.8075 15.3066 15.0575 15.0565C15.3076 14.8065 15.6467 14.666 16.0003 14.666Z" fill="#818181"/>
</g>
<defs>
<clipPath id="clip0_82_417">
<rect width="32" height="32" fill="white"/>
</clipPath>
</defs>
</svg>
