<svg width="20" height="20" viewBox="0 0 20 20" fill="none" xmlns="http://www.w3.org/2000/svg">
<g clip-path="url(#clip0_82_203)">
<path fill-rule="evenodd" clip-rule="evenodd" d="M17.4999 16.6668C17.7123 16.6671 17.9166 16.7484 18.071 16.8942C18.2255 17.04 18.3184 17.2393 18.3309 17.4513C18.3433 17.6634 18.2743 17.8721 18.138 18.035C18.0017 18.1979 17.8083 18.3026 17.5974 18.3277L17.4999 18.3335H2.49991C2.28751 18.3333 2.08322 18.2519 1.92877 18.1061C1.77432 17.9603 1.68138 17.761 1.66893 17.549C1.65649 17.337 1.72547 17.1282 1.8618 16.9653C1.99812 16.8024 2.1915 16.6977 2.40241 16.6727L2.49991 16.6668H17.4999ZM6.75241 2.67099C6.73363 2.54096 6.74554 2.40833 6.78721 2.28373C6.82888 2.15913 6.89913 2.04601 6.99236 1.95343C7.08559 1.86085 7.19919 1.79139 7.32408 1.75059C7.44897 1.70979 7.58168 1.6988 7.71158 1.71849L7.80324 1.73849L10.1032 2.35432C10.3916 2.43182 10.6316 2.62932 10.7641 2.89266L10.8082 2.99516L13.1499 9.24599L16.2041 10.3435C16.7371 10.5349 17.2119 10.8604 17.5827 11.2884C17.9536 11.7165 18.208 12.2328 18.3216 12.7877C18.4366 13.3493 18.2932 13.9235 17.8516 14.311C17.5165 14.6056 17.1179 14.8187 16.6868 14.9338C16.2557 15.0488 15.8039 15.0627 15.3666 14.9743L15.1916 14.9327L2.62741 11.566C2.46708 11.5231 2.32139 11.4376 2.20589 11.3184C2.09038 11.1992 2.0094 11.0509 1.97158 10.8893L1.95491 10.7893L1.43074 6.40182C1.41541 6.2734 1.42987 6.14318 1.47301 6.02125C1.51616 5.89933 1.58682 5.78898 1.67951 5.69879C1.7722 5.6086 1.88443 5.54098 2.00749 5.50118C2.13055 5.46139 2.26112 5.45048 2.38908 5.46932L2.48491 5.48932L4.37658 5.99682C4.67658 6.07682 4.92241 6.28516 5.05158 6.56182L5.09408 6.66932L5.37741 7.50599L7.49574 7.82849L6.75241 2.67099ZM8.58074 3.67182L9.30408 8.69182C9.32158 8.81369 9.31214 8.93792 9.27641 9.05574C9.24068 9.17357 9.17954 9.28212 9.0973 9.37374C9.01505 9.46536 8.91371 9.53782 8.80041 9.58602C8.68711 9.63421 8.56462 9.65696 8.44158 9.65266L8.34408 9.64432L4.63074 9.07766C4.49553 9.05717 4.36735 9.00404 4.25729 8.92288C4.14723 8.84171 4.0586 8.73495 3.99908 8.61182L3.95991 8.51599L3.62324 7.52016L3.22991 7.41432L3.54908 10.0885L15.6224 13.3235C15.9924 13.4227 16.3857 13.3435 16.6866 13.1127C16.6337 12.8615 16.5224 12.6264 16.3617 12.4263C16.201 12.2262 15.9954 12.0668 15.7616 11.961L15.6407 11.9118L12.2274 10.6852C12.0292 10.6142 11.8647 10.4714 11.7666 10.2852L11.7241 10.1885L9.36074 3.88016L8.58074 3.67182Z" fill="#585858"/>
</g>
<defs>
<clipPath id="clip0_82_203">
<rect width="20" height="20" fill="white"/>
</clipPath>
</defs>
</svg>
