<svg width="37" height="37" viewBox="0 0 37 37" fill="none" xmlns="http://www.w3.org/2000/svg">
<path d="M9.8647 5.65625C5.68685 5.65625 2.2627 9.06991 2.2627 13.2365C2.2627 14.851 2.77818 16.3515 3.65097 17.5849L8.93725 26.7232C9.67754 27.6905 10.1699 27.5069 10.7856 26.6725L16.616 16.7501C16.7336 16.5365 16.826 16.3099 16.9067 16.0782C17.2764 15.1764 17.4666 14.2112 17.4667 13.2365C17.4667 9.06991 14.0436 5.65625 9.8647 5.65625ZM9.8647 9.20819C12.1149 9.20819 13.9046 10.9932 13.9046 13.2369C13.9046 15.4806 12.1145 17.2649 9.8647 17.2649C7.61487 17.2649 5.82478 15.4802 5.82478 13.2369C5.82478 10.9936 7.61523 9.20819 9.8647 9.20819Z" fill="#818181"/>
<path fill-rule="evenodd" clip-rule="evenodd" d="M34.1944 7.61523C33.381 7.63333 32.5654 7.66772 31.7483 7.72818L31.8743 9.73076C32.6591 9.67387 33.4453 9.6373 34.232 9.62108L34.1944 7.61523ZM29.8594 7.91207C28.6033 8.0681 27.3363 8.29036 26.0838 8.64766L26.5554 10.5883C27.6936 10.264 28.873 10.0544 30.0708 9.90561L29.8594 7.91207ZM24.2082 9.31953C23.8329 9.48517 23.4696 9.67664 23.1208 9.89258L23.1193 9.89439L23.1172 9.89511C22.6194 10.2086 22.0949 10.6064 21.6666 11.1846C21.3564 11.6034 21.1026 12.133 21.0433 12.7593L22.8877 12.9638C22.9014 12.8168 22.9767 12.6228 23.1121 12.4403H23.1128V12.4396C23.3311 12.1442 23.6584 11.876 24.0475 11.6305L24.049 11.6298C24.3265 11.459 24.6154 11.3071 24.9134 11.1751L24.2082 9.31953ZM23.2587 13.8572L22.063 15.3903C22.3465 15.6495 22.6437 15.8486 22.9307 16.0151L22.9344 16.0169L22.938 16.0191C23.8908 16.561 24.8732 16.8669 25.784 17.1572L26.3075 15.2321C25.397 14.9418 24.5387 14.6616 23.8032 14.2438C23.5925 14.1215 23.4079 13.9937 23.2587 13.8572ZM28.086 15.7736L27.5748 17.702L27.8167 17.7773L28.1135 17.8721C29.096 18.1918 30.0372 18.5332 30.8784 19.0056L31.732 17.2245C30.7148 16.6529 29.6589 16.2793 28.6413 15.9485L28.6384 15.9478L28.3336 15.8504L28.086 15.7736ZM33.4678 18.561L32.1563 19.9801C32.4662 20.3156 32.6982 20.7193 32.8112 21.1363L32.8119 21.1385L32.8126 21.1417C32.9473 21.6286 32.9476 22.2013 32.8423 22.7798L34.661 23.1678C34.8094 22.3512 34.8333 21.4545 34.5893 20.5694C34.3768 19.7868 33.9714 19.1069 33.4678 18.561ZM32.2074 23.9889C32.0067 24.2002 31.7852 24.3909 31.5463 24.5579H31.5456C30.894 25.0162 30.1382 25.3616 29.3352 25.6584L29.934 27.5567C30.8122 27.232 31.7139 26.8338 32.5567 26.2409L32.5589 26.239L32.5599 26.2383C32.906 25.9959 33.2261 25.7185 33.5153 25.4104L32.2074 23.9889ZM27.6317 26.1931C26.4686 26.5058 25.2798 26.744 24.0765 26.946L24.3603 28.9294C25.5987 28.7213 26.8421 28.4726 28.078 28.1403L27.6317 26.1931ZM22.2661 27.2197C21.0549 27.3851 19.8371 27.5202 18.6157 27.6353L18.7757 29.6342C20.0159 29.5177 21.2583 29.3805 22.4989 29.2107L22.2661 27.2197ZM16.78 27.7928C15.5561 27.8898 14.3293 27.9687 13.1014 28.0353L13.194 30.0393C14.4339 29.9724 15.6748 29.8924 16.9154 29.7939L16.78 27.7928ZM11.2562 28.1258C10.5203 28.1602 9.78253 28.1884 9.04297 28.2145L9.10379 30.2203C9.84797 30.1947 10.592 30.1651 11.3359 30.1313L11.2562 28.1258Z" fill="#818181"/>
</svg>
