<svg width="20" height="20" viewBox="0 0 20 20" fill="none" xmlns="http://www.w3.org/2000/svg">
<g clip-path="url(#clip0_82_209)">
<path fill-rule="evenodd" clip-rule="evenodd" d="M10.0005 1.7207C10.8271 1.7207 11.583 2.08987 12.2321 2.68987C13.4488 3.81404 14.5421 5.7707 15.4346 7.7257C16.3421 9.7132 17.0963 11.8207 17.6013 13.3499C18.1613 15.044 17.4288 16.8482 15.9313 17.7465C15.1554 18.2141 14.2398 18.394 13.3447 18.2547C12.4496 18.1155 11.6319 17.666 11.0346 16.9849C10.689 16.5893 10.3443 16.1929 10.0005 15.7957C9.64714 16.204 9.29381 16.6099 8.96547 16.9849C8.36829 17.6658 7.55076 18.1152 6.65581 18.2544C5.76087 18.3936 4.84547 18.2139 4.06964 17.7465C2.57214 16.8482 1.83964 15.044 2.39964 13.3499C2.90464 11.8207 3.65881 9.7132 4.56631 7.7257C5.45881 5.7707 6.55047 3.81404 7.76714 2.68987C8.41714 2.08987 9.17297 1.7207 9.99964 1.7207H10.0005ZM11.0971 14.5157C11.6221 13.8949 12.0721 13.3482 12.3338 12.999C13.1171 11.9549 13.318 10.624 12.9288 9.5157C12.5238 8.36237 11.4896 7.49904 10.0005 7.49904C8.51131 7.49904 7.47714 8.36237 7.07214 9.5157C6.68297 10.624 6.88297 11.9549 7.66714 12.999C7.92797 13.3482 8.37797 13.8949 8.90381 14.5157C8.50381 14.979 8.09381 15.449 7.71214 15.8874C7.37219 16.2745 6.90691 16.5297 6.39776 16.6083C5.8886 16.6869 5.36801 16.5839 4.92714 16.3174C4.06547 15.8007 3.67881 14.7907 3.98214 13.8724C4.47797 12.3724 5.21047 10.3274 6.08214 8.4182C6.96797 6.47654 7.94714 4.7932 8.89881 3.91404C9.32881 3.51737 9.69964 3.38737 10.0005 3.38737C10.3005 3.38737 10.6713 3.51737 11.1021 3.91404C12.0538 4.7932 13.0321 6.47737 13.9188 8.4182C14.7905 10.3274 15.523 12.3724 16.0188 13.8724C16.3221 14.7907 15.9355 15.7999 15.0738 16.3174C14.633 16.5837 14.1126 16.6866 13.6036 16.608C13.0947 16.5293 12.6295 16.2743 12.2896 15.8874C11.9063 15.4499 11.4971 14.979 11.0971 14.5157ZM10.0005 13.2307C9.65721 12.8286 9.32378 12.4182 9.00047 11.9999C8.53381 11.3782 8.44797 10.6257 8.64464 10.0682C8.82547 9.5532 9.24964 9.16654 10.0005 9.16654C10.7505 9.16654 11.1755 9.5532 11.3563 10.0682C11.5521 10.6265 11.4663 11.3782 11.0005 11.9999C10.6774 12.4183 10.3439 12.8287 10.0005 13.2307Z" fill="#585858"/>
</g>
<defs>
<clipPath id="clip0_82_209">
<rect width="20" height="20" fill="white"/>
</clipPath>
</defs>
</svg>
