<svg width="20" height="20" viewBox="0 0 20 20" fill="none" xmlns="http://www.w3.org/2000/svg">
<g clip-path="url(#clip0_82_215)">
<g clip-path="url(#clip1_82_215)">
<path fill-rule="evenodd" clip-rule="evenodd" d="M4.16667 4.16667C4.16667 3.72464 4.34226 3.30072 4.65482 2.98816C4.96738 2.67559 5.39131 2.5 5.83333 2.5H14.1667C14.6087 2.5 15.0326 2.67559 15.3452 2.98816C15.6577 3.30072 15.8333 3.72464 15.8333 4.16667V5H16.6667C16.8877 5 17.0996 5.0878 17.2559 5.24408C17.4122 5.40036 17.5 5.61232 17.5 5.83333C17.5 6.05435 17.4122 6.26631 17.2559 6.42259C17.0996 6.57887 16.8877 6.66667 16.6667 6.66667V15.8333C16.8877 15.8333 17.0996 15.9211 17.2559 16.0774C17.4122 16.2337 17.5 16.4457 17.5 16.6667C17.5 16.8877 17.4122 17.0996 17.2559 17.2559C17.0996 17.4122 16.8877 17.5 16.6667 17.5H3.33333C3.11232 17.5 2.90036 17.4122 2.74408 17.2559C2.5878 17.0996 2.5 16.8877 2.5 16.6667C2.5 16.4457 2.5878 16.2337 2.74408 16.0774C2.90036 15.9211 3.11232 15.8333 3.33333 15.8333V6.66667C3.11232 6.66667 2.90036 6.57887 2.74408 6.42259C2.5878 6.26631 2.5 6.05435 2.5 5.83333C2.5 5.61232 2.5878 5.40036 2.74408 5.24408C2.90036 5.0878 3.11232 5 3.33333 5H4.16667V4.16667ZM14.1667 4.16667V5H5.83333V4.16667H14.1667ZM15 6.66667V15.8333H12.0833V13.75C12.0833 13.1975 11.8638 12.6676 11.4731 12.2769C11.0824 11.8862 10.5525 11.6667 10 11.6667C9.44747 11.6667 8.91756 11.8862 8.52686 12.2769C8.13616 12.6676 7.91667 13.1975 7.91667 13.75V15.8333H5V6.66667H15ZM10 13.3333C10.1105 13.3333 10.2165 13.3772 10.2946 13.4554C10.3728 13.5335 10.4167 13.6395 10.4167 13.75V15.8333H9.58333V13.75C9.58333 13.6395 9.62723 13.5335 9.70537 13.4554C9.78351 13.3772 9.88949 13.3333 10 13.3333ZM6.66667 10.8333C6.88768 10.8333 7.09964 10.9211 7.25592 11.0774C7.4122 11.2337 7.5 11.4457 7.5 11.6667V12.5C7.5 12.721 7.4122 12.933 7.25592 13.0893C7.09964 13.2455 6.88768 13.3333 6.66667 13.3333C6.44565 13.3333 6.23369 13.2455 6.07741 13.0893C5.92113 12.933 5.83333 12.721 5.83333 12.5V11.6667C5.83333 11.4457 5.92113 11.2337 6.07741 11.0774C6.23369 10.9211 6.44565 10.8333 6.66667 10.8333ZM13.3333 10.8333C13.5374 10.8334 13.7344 10.9083 13.887 11.0439C14.0395 11.1796 14.137 11.3665 14.1608 11.5692L14.1667 11.6667V12.5C14.1664 12.7124 14.0851 12.9167 13.9393 13.0711C13.7935 13.2256 13.5942 13.3185 13.3822 13.331C13.1701 13.3434 12.9614 13.2744 12.7985 13.1381C12.6356 13.0018 12.5309 12.8084 12.5058 12.5975L12.5 12.5V11.6667C12.5 11.4457 12.5878 11.2337 12.7441 11.0774C12.9004 10.9211 13.1123 10.8333 13.3333 10.8333ZM6.66667 7.5C6.87078 7.50003 7.06778 7.57496 7.22031 7.7106C7.37284 7.84623 7.47029 8.03312 7.49417 8.23583L7.5 8.33333V9.16667C7.49976 9.37907 7.41843 9.58336 7.27263 9.73781C7.12682 9.89225 6.92754 9.9852 6.7155 9.99764C6.50347 10.0101 6.29468 9.9411 6.13181 9.80478C5.96893 9.66845 5.86425 9.47508 5.83917 9.26417L5.83333 9.16667V8.33333C5.83333 8.11232 5.92113 7.90036 6.07741 7.74408C6.23369 7.5878 6.44565 7.5 6.66667 7.5ZM10 7.5C10.2041 7.50003 10.4011 7.57496 10.5536 7.7106C10.7062 7.84623 10.8036 8.03312 10.8275 8.23583L10.8333 8.33333V9.16667C10.8331 9.37907 10.7518 9.58336 10.606 9.73781C10.4602 9.89225 10.2609 9.9852 10.0488 9.99764C9.8368 10.0101 9.62802 9.9411 9.46514 9.80478C9.30226 9.66845 9.19759 9.47508 9.1725 9.26417L9.16667 9.16667V8.33333C9.16667 8.11232 9.25446 7.90036 9.41074 7.74408C9.56702 7.5878 9.77899 7.5 10 7.5ZM13.3333 7.5C13.5543 7.5 13.7663 7.5878 13.9226 7.74408C14.0789 7.90036 14.1667 8.11232 14.1667 8.33333V9.16667C14.1667 9.38768 14.0789 9.59964 13.9226 9.75592C13.7663 9.9122 13.5543 10 13.3333 10C13.1123 10 12.9004 9.9122 12.7441 9.75592C12.5878 9.59964 12.5 9.38768 12.5 9.16667V8.33333C12.5 8.11232 12.5878 7.90036 12.7441 7.74408C12.9004 7.5878 13.1123 7.5 13.3333 7.5Z" fill="#585858"/>
</g>
</g>
<defs>
<clipPath id="clip0_82_215">
<rect width="20" height="20" fill="white"/>
</clipPath>
<clipPath id="clip1_82_215">
<rect width="20" height="20" fill="white"/>
</clipPath>
</defs>
</svg>
