<svg width="410" height="304" viewBox="0 0 410 304" fill="none" xmlns="http://www.w3.org/2000/svg">
<path d="M-168.913 366.659L-186.021 396.292C-192.828 408.08 -194.672 422.09 -191.149 435.238C-187.626 448.386 -179.024 459.597 -167.235 466.403C-155.447 473.209 -141.437 475.053 -128.289 471.53C-115.14 468.007 -103.93 459.405 -97.1239 447.617L-80.0156 417.984M97.7795 520.634L80.6711 550.267C73.865 562.055 72.0206 576.065 75.5438 589.213C79.0669 602.361 87.6688 613.572 99.4574 620.378C111.246 627.184 125.255 629.028 138.404 625.505C151.552 621.982 162.763 613.38 169.569 601.592L186.677 571.959M9.49611 331.379L128.026 399.812M285.357 332.607L-10.9681 161.524M285.357 332.607L303.066 398.699C305.394 407.382 305.989 416.439 304.815 425.352C303.642 434.265 300.724 442.859 296.228 450.644L259.08 514.986C254.543 522.845 247.069 528.58 238.304 530.929C229.538 533.277 220.199 532.048 212.339 527.51L-143.251 322.21C-151.11 317.673 -156.844 310.199 -159.193 301.434C-161.542 292.668 -160.312 283.329 -155.775 275.47L-118.627 211.128C-114.133 203.342 -108.149 196.517 -101.016 191.045C-93.8842 185.572 -85.7436 181.558 -77.0596 179.233L-10.9681 161.524M285.357 332.607L353.79 214.077C358.328 206.218 359.557 196.878 357.209 188.113C354.86 179.347 349.125 171.874 341.266 167.336L104.206 30.4695C96.3471 25.9321 87.0075 24.7025 78.2418 27.0513C69.4762 29.4 62.0027 35.1347 57.4653 42.9937L-10.9681 161.524M285.357 332.607L314.989 349.715C322.849 354.253 332.188 355.482 340.954 353.134C349.719 350.785 357.193 345.05 361.73 337.191L378.839 307.559C383.376 299.7 384.606 290.36 382.257 281.594C379.908 272.829 374.174 265.355 366.314 260.818L336.682 243.71L285.357 332.607ZM-10.9681 161.524L-40.6006 144.415C-48.4596 139.878 -54.1943 132.404 -56.543 123.639C-58.8917 114.873 -57.6622 105.534 -53.1247 97.6745L-36.0164 68.042C-31.479 60.183 -24.0054 54.4483 -15.2398 52.0996C-6.47422 49.7509 2.8654 50.9805 10.7244 55.5179L40.3569 72.6262L-10.9681 161.524ZM222.736 98.9029L137.194 247.065M-99.1159 189.652L305.071 423.009" stroke="white" stroke-opacity="0.02" stroke-width="51.7708" stroke-linecap="round" stroke-linejoin="round"/>
</svg>
