<svg width="200" height="36" viewBox="0 0 200 36" fill="none" xmlns="http://www.w3.org/2000/svg">
<g clip-path="url(#clip0_82_174)">
<path d="M4.5 29.25V31.5C4.5 32.3951 4.85558 33.2535 5.48851 33.8865C6.12145 34.5194 6.97989 34.875 7.875 34.875C8.77011 34.875 9.62855 34.5194 10.2615 33.8865C10.8944 33.2535 11.25 32.3951 11.25 31.5V29.25M24.75 29.25V31.5C24.75 32.3951 25.1056 33.2535 25.7385 33.8865C26.3715 34.5194 27.2299 34.875 28.125 34.875C29.0201 34.875 29.8785 34.5194 30.5115 33.8865C31.1444 33.2535 31.5 32.3951 31.5 31.5V29.25M13.5 21.375H22.5M29.25 12.375H6.75M29.25 12.375L32.4315 15.5565C32.8496 15.9744 33.1812 16.4707 33.4074 17.0168C33.6337 17.563 33.7501 18.1483 33.75 18.7395V23.625C33.75 24.2217 33.5129 24.794 33.091 25.216C32.669 25.6379 32.0967 25.875 31.5 25.875H4.5C3.90326 25.875 3.33097 25.6379 2.90901 25.216C2.48705 24.794 2.25 24.2217 2.25 23.625V18.7395C2.24993 18.1483 2.36634 17.563 2.59257 17.0168C2.8188 16.4707 3.15043 15.9744 3.5685 15.5565L6.75 12.375M29.25 12.375V3.375C29.25 2.77826 29.0129 2.20597 28.591 1.78401C28.169 1.36205 27.5967 1.125 27 1.125H9C8.40326 1.125 7.83097 1.36205 7.40901 1.78401C6.98705 2.20597 6.75 2.77826 6.75 3.375V12.375M29.25 12.375H31.5C32.0967 12.375 32.669 12.1379 33.091 11.716C33.5129 11.294 33.75 10.7217 33.75 10.125V7.875C33.75 7.27826 33.5129 6.70597 33.091 6.28401C32.669 5.86205 32.0967 5.625 31.5 5.625H29.25V12.375ZM6.75 12.375H4.5C3.90326 12.375 3.33097 12.1379 2.90901 11.716C2.48705 11.294 2.25 10.7217 2.25 10.125V7.875C2.25 7.27826 2.48705 6.70597 2.90901 6.28401C3.33097 5.86205 3.90326 5.625 4.5 5.625H6.75V12.375ZM18 1.125V12.375M2.655 16.875H33.345" stroke="white" stroke-width="2.625" stroke-linecap="round" stroke-linejoin="round"/>
<path d="M6.75 21.9375C6.60082 21.9375 6.45774 21.8782 6.35225 21.7727C6.24676 21.6673 6.1875 21.5242 6.1875 21.375C6.1875 21.2258 6.24676 21.0827 6.35225 20.9773C6.45774 20.8718 6.60082 20.8125 6.75 20.8125M6.75 21.9375C6.89918 21.9375 7.04226 21.8782 7.14775 21.7727C7.25324 21.6673 7.3125 21.5242 7.3125 21.375C7.3125 21.2258 7.25324 21.0827 7.14775 20.9773C7.04226 20.8718 6.89918 20.8125 6.75 20.8125M29.25 21.9375C29.1008 21.9375 28.9577 21.8782 28.8523 21.7727C28.7468 21.6673 28.6875 21.5242 28.6875 21.375C28.6875 21.2258 28.7468 21.0827 28.8523 20.9773C28.9577 20.8718 29.1008 20.8125 29.25 20.8125M29.25 21.9375C29.3992 21.9375 29.5423 21.8782 29.6477 21.7727C29.7532 21.6673 29.8125 21.5242 29.8125 21.375C29.8125 21.2258 29.7532 21.0827 29.6477 20.9773C29.5423 20.8718 29.3992 20.8125 29.25 20.8125" stroke="white" stroke-width="2.625"/>
</g>
<path d="M53.86 29L49.21 7.13H54.37L56.38 18.11L57.34 23.9H57.58L61.03 7.13H66.76L70.3 23.96H70.51L71.41 18.17L73.36 7.13H78.52L73.87 29H67.45L64 13.43H63.79L60.25 29H53.86ZM84.3367 29.27C83.3767 29.27 82.4967 29.1 81.6967 28.76C80.9167 28.42 80.2367 27.9 79.6567 27.2C79.0967 26.5 78.6667 25.63 78.3667 24.59C78.0667 23.55 77.9167 22.34 77.9167 20.96C77.9167 19.1 78.1767 17.56 78.6967 16.34C79.2367 15.1 79.9867 14.17 80.9467 13.55C81.9267 12.93 83.0567 12.62 84.3367 12.62C85.1767 12.62 85.9267 12.75 86.5867 13.01C87.2667 13.27 87.8467 13.63 88.3267 14.09C88.8267 14.55 89.1967 15.09 89.4367 15.71H89.6767L89.8567 12.92H94.0867V29H89.6767V26.18H89.4367C89.0767 27.12 88.4467 27.87 87.5467 28.43C86.6467 28.99 85.5767 29.27 84.3367 29.27ZM86.0167 25.7C86.8367 25.7 87.5067 25.51 88.0267 25.13C88.5667 24.75 88.9667 24.26 89.2267 23.66C89.4867 23.04 89.6167 22.39 89.6167 21.71V20.18C89.6167 19.48 89.4867 18.83 89.2267 18.23C88.9667 17.63 88.5667 17.14 88.0267 16.76C87.5067 16.38 86.8367 16.19 86.0167 16.19C85.2967 16.19 84.6667 16.36 84.1267 16.7C83.5867 17.04 83.1667 17.56 82.8667 18.26C82.5667 18.96 82.4167 19.86 82.4167 20.96C82.4167 22.02 82.5667 22.91 82.8667 23.63C83.1667 24.33 83.5867 24.85 84.1267 25.19C84.6667 25.53 85.2967 25.7 86.0167 25.7ZM96.9611 29V12.92H101.191L101.371 15.83H101.551C101.991 14.75 102.671 13.95 103.591 13.43C104.511 12.89 105.541 12.62 106.681 12.62C107.481 12.62 108.221 12.75 108.901 13.01C109.601 13.25 110.201 13.63 110.701 14.15C111.221 14.67 111.621 15.36 111.901 16.22C112.201 17.06 112.351 18.08 112.351 19.28V29H107.941V20.24C107.941 19.34 107.831 18.59 107.611 17.99C107.411 17.39 107.091 16.95 106.651 16.67C106.211 16.37 105.631 16.22 104.911 16.22C104.151 16.22 103.511 16.4 102.991 16.76C102.471 17.12 102.071 17.59 101.791 18.17C101.511 18.75 101.371 19.38 101.371 20.06V29H96.9611ZM120.535 29.27C119.575 29.27 118.695 29.1 117.895 28.76C117.115 28.42 116.435 27.9 115.855 27.2C115.295 26.5 114.865 25.63 114.565 24.59C114.265 23.55 114.115 22.34 114.115 20.96C114.115 19.1 114.375 17.56 114.895 16.34C115.435 15.1 116.185 14.17 117.145 13.55C118.125 12.93 119.255 12.62 120.535 12.62C121.375 12.62 122.125 12.75 122.785 13.01C123.465 13.27 124.045 13.63 124.525 14.09C125.025 14.55 125.395 15.09 125.635 15.71H125.875V7.13H130.285V29H126.025L125.875 26.18H125.635C125.275 27.12 124.645 27.87 123.745 28.43C122.845 28.99 121.775 29.27 120.535 29.27ZM122.215 25.7C123.035 25.7 123.705 25.51 124.225 25.13C124.765 24.75 125.165 24.26 125.425 23.66C125.685 23.04 125.815 22.39 125.815 21.71V20.18C125.815 19.66 125.745 19.16 125.605 18.68C125.465 18.2 125.245 17.78 124.945 17.42C124.645 17.04 124.265 16.74 123.805 16.52C123.345 16.3 122.815 16.19 122.215 16.19C121.495 16.19 120.865 16.36 120.325 16.7C119.785 17.04 119.365 17.56 119.065 18.26C118.765 18.96 118.615 19.86 118.615 20.96C118.615 22.02 118.765 22.91 119.065 23.63C119.365 24.33 119.785 24.85 120.325 25.19C120.865 25.53 121.495 25.7 122.215 25.7ZM140.089 29.3C138.409 29.3 136.979 28.96 135.799 28.28C134.639 27.6 133.749 26.64 133.129 25.4C132.509 24.16 132.199 22.72 132.199 21.08C132.199 19.34 132.509 17.84 133.129 16.58C133.769 15.32 134.659 14.35 135.799 13.67C136.959 12.97 138.329 12.62 139.909 12.62C141.749 12.62 143.249 13.02 144.409 13.82C145.589 14.62 146.439 15.72 146.959 17.12C147.479 18.52 147.649 20.12 147.469 21.92H136.519C136.519 22.8 136.659 23.55 136.939 24.17C137.239 24.77 137.659 25.22 138.199 25.52C138.739 25.82 139.369 25.97 140.089 25.97C140.909 25.97 141.599 25.78 142.159 25.4C142.719 25.02 143.079 24.52 143.239 23.9H147.379C147.259 25 146.869 25.96 146.209 26.78C145.549 27.58 144.689 28.2 143.629 28.64C142.589 29.08 141.409 29.3 140.089 29.3ZM136.519 19.61L136.129 19.19H143.569L143.149 19.61C143.189 18.77 143.069 18.09 142.789 17.57C142.529 17.03 142.149 16.62 141.649 16.34C141.169 16.06 140.589 15.92 139.909 15.92C139.229 15.92 138.629 16.07 138.109 16.37C137.609 16.65 137.219 17.07 136.939 17.63C136.679 18.17 136.539 18.83 136.519 19.61ZM149.456 29V12.92H153.446L153.626 15.5H153.776C154.136 14.46 154.706 13.74 155.486 13.34C156.286 12.92 157.196 12.71 158.216 12.71C158.396 12.71 158.556 12.71 158.696 12.71C158.836 12.71 158.976 12.71 159.116 12.71V16.85C159.016 16.85 158.876 16.85 158.696 16.85C158.516 16.85 158.326 16.85 158.126 16.85C157.146 16.85 156.346 17 155.726 17.3C155.106 17.58 154.646 18 154.346 18.56C154.046 19.12 153.886 19.8 153.866 20.6V29H149.456ZM170.529 29.27C168.829 29.27 167.309 29.01 165.969 28.49C164.629 27.95 163.489 27.19 162.549 26.21C161.629 25.21 160.919 24.02 160.419 22.64C159.939 21.26 159.699 19.73 159.699 18.05C159.699 16.27 159.959 14.69 160.479 13.31C161.019 11.93 161.769 10.76 162.729 9.8C163.709 8.84 164.869 8.11 166.209 7.61C167.569 7.11 169.079 6.86 170.739 6.86C172.699 6.86 174.399 7.18 175.839 7.82C177.299 8.44 178.459 9.32 179.319 10.46C180.199 11.6 180.719 12.94 180.879 14.48H176.079C175.919 13.72 175.589 13.07 175.089 12.53C174.609 11.99 173.999 11.58 173.259 11.3C172.519 11 171.679 10.85 170.739 10.85C169.479 10.85 168.379 11.12 167.439 11.66C166.499 12.18 165.769 12.98 165.249 14.06C164.749 15.12 164.499 16.45 164.499 18.05C164.499 19.25 164.639 20.31 164.919 21.23C165.199 22.15 165.609 22.92 166.149 23.54C166.689 24.14 167.329 24.6 168.069 24.92C168.829 25.22 169.679 25.37 170.619 25.37C171.839 25.37 172.889 25.16 173.769 24.74C174.669 24.3 175.359 23.67 175.839 22.85C176.319 22.03 176.559 21.07 176.559 19.97V19.13L177.849 20.66H170.529V17.33H181.269V19.43C181.269 20.93 181.009 22.29 180.489 23.51C179.989 24.71 179.269 25.74 178.329 26.6C177.389 27.46 176.259 28.12 174.939 28.58C173.619 29.04 172.149 29.27 170.529 29.27ZM190.538 29.27C189.318 29.27 188.218 29.09 187.238 28.73C186.258 28.35 185.408 27.8 184.688 27.08C183.968 26.36 183.418 25.49 183.038 24.47C182.658 23.43 182.468 22.26 182.468 20.96C182.468 19.3 182.788 17.85 183.428 16.61C184.068 15.35 184.988 14.37 186.188 13.67C187.388 12.97 188.838 12.62 190.538 12.62C191.738 12.62 192.828 12.81 193.808 13.19C194.788 13.57 195.628 14.12 196.328 14.84C197.048 15.56 197.598 16.43 197.978 17.45C198.378 18.47 198.578 19.64 198.578 20.96C198.578 22.6 198.258 24.05 197.618 25.31C196.978 26.55 196.058 27.52 194.858 28.22C193.678 28.92 192.238 29.27 190.538 29.27ZM190.508 25.7C191.228 25.7 191.858 25.53 192.398 25.19C192.958 24.83 193.378 24.3 193.658 23.6C193.958 22.9 194.108 22.02 194.108 20.96C194.108 20.16 194.028 19.47 193.868 18.89C193.708 18.29 193.468 17.79 193.148 17.39C192.828 16.99 192.448 16.7 192.008 16.52C191.568 16.32 191.078 16.22 190.538 16.22C189.818 16.22 189.178 16.39 188.618 16.73C188.078 17.07 187.658 17.59 187.358 18.29C187.058 18.99 186.908 19.88 186.908 20.96C186.908 21.76 186.988 22.46 187.148 23.06C187.328 23.64 187.578 24.13 187.898 24.53C188.218 24.91 188.598 25.2 189.038 25.4C189.478 25.6 189.968 25.7 190.508 25.7Z" fill="white"/>
<defs>
<clipPath id="clip0_82_174">
<rect width="36" height="36" fill="white"/>
</clipPath>
</defs>
</svg>
