<svg width="474" height="378" viewBox="0 0 474 378" fill="none" xmlns="http://www.w3.org/2000/svg">
<g clip-path="url(#clip0_82_485)">
<path d="M281.673 624.739L298.782 654.372C305.588 666.16 316.798 674.762 329.946 678.286C343.095 681.809 357.104 679.964 368.893 673.158C380.681 666.352 389.283 655.142 392.806 641.993C396.33 628.845 394.485 614.835 387.679 603.047L370.571 573.414M548.366 470.764L565.474 500.397C572.28 512.185 583.491 520.787 596.639 524.311C609.787 527.834 623.797 525.989 635.585 519.183C647.374 512.377 655.976 501.167 659.499 488.018C663.022 474.87 661.178 460.86 654.372 449.072L637.263 419.439M340.324 452.592L458.854 384.159M479.318 214.304L182.993 385.387M479.318 214.304L545.41 232.013C554.094 234.339 562.234 238.352 569.367 243.825C576.499 249.297 582.483 256.122 586.977 263.908L624.125 328.25C628.662 336.109 629.892 345.448 627.543 354.214C625.194 362.98 619.46 370.453 611.601 374.991L256.011 580.291C248.152 584.828 238.812 586.058 230.046 583.709C221.281 581.36 213.807 575.625 209.27 567.766L172.122 503.424C167.626 495.639 164.708 487.045 163.535 478.132C162.362 469.219 162.956 460.162 165.284 451.479L182.993 385.387M479.318 214.304L410.885 95.7739C406.347 87.9149 398.874 82.1802 390.108 79.8315C381.343 77.4827 372.003 78.7123 364.144 83.2497L127.084 220.116C119.225 224.654 113.49 232.127 111.142 240.893C108.793 249.659 110.022 258.998 114.56 266.857L182.993 385.387M479.318 214.304L508.951 197.196C516.81 192.658 522.544 185.185 524.893 176.419C527.242 167.653 526.012 158.314 521.475 150.455L504.367 120.822C499.829 112.963 492.356 107.229 483.59 104.88C474.824 102.531 465.485 103.761 457.626 108.298L427.993 125.406L479.318 214.304ZM182.993 385.387L153.361 402.496C145.502 407.033 136.162 408.263 127.396 405.914C118.631 403.565 111.157 397.83 106.62 389.971L89.5115 360.339C84.9741 352.48 83.7445 343.14 86.0933 334.375C88.442 325.609 94.1767 318.135 102.036 313.598L131.668 296.49L182.993 385.387ZM245.614 151.683L331.156 299.846M163.279 475.789L567.466 242.432" stroke="white" stroke-opacity="0.02" stroke-width="51.7708" stroke-linecap="round" stroke-linejoin="round"/>
<path d="M255.704 511.325C253.739 512.46 251.404 512.767 249.212 512.18C247.021 511.593 245.153 510.159 244.018 508.194C242.884 506.23 242.577 503.895 243.164 501.703C243.751 499.512 245.185 497.643 247.149 496.509M255.704 511.325C257.668 510.191 259.102 508.323 259.689 506.131C260.276 503.94 259.969 501.605 258.835 499.64C257.7 497.675 255.832 496.242 253.64 495.654C251.449 495.067 249.114 495.375 247.149 496.509M552.029 340.242C550.064 341.376 547.729 341.684 545.537 341.097C543.346 340.509 541.478 339.076 540.343 337.111C539.209 335.146 538.902 332.811 539.489 330.62C540.076 328.428 541.51 326.56 543.474 325.426M552.029 340.242C553.993 339.108 555.427 337.239 556.014 335.048C556.601 332.856 556.294 330.522 555.16 328.557C554.025 326.592 552.157 325.158 549.965 324.571C547.774 323.984 545.439 324.291 543.474 325.426" stroke="white" stroke-opacity="0.02" stroke-width="51.7708"/>
</g>
<defs>
<clipPath id="clip0_82_485">
<rect width="547.467" height="547.467" fill="white" transform="translate(0 273.733) rotate(-30)"/>
</clipPath>
</defs>
</svg>
