<svg width="37" height="37" viewBox="0 0 37 37" fill="none" xmlns="http://www.w3.org/2000/svg">
<g clip-path="url(#clip0_82_408)">
<path fill-rule="evenodd" clip-rule="evenodd" d="M15.8362 3.01699C16.7109 3.01699 17.5706 3.10446 18.3986 3.27338C18.7906 3.35298 19.1349 3.58504 19.3558 3.91851C19.5767 4.25198 19.6561 4.65954 19.5765 5.05154C19.4969 5.44354 19.2648 5.78786 18.9314 6.00876C18.5979 6.22966 18.1903 6.30905 17.7983 6.22945C15.8987 5.84193 13.9269 6.02636 12.1321 6.7594C10.3373 7.49245 8.80019 8.7412 7.71505 10.3478C6.62991 11.9543 6.04549 13.8466 6.03568 15.7853C6.02587 17.724 6.59111 19.622 7.65993 21.2395C8.72876 22.857 10.2532 24.1212 12.0404 24.8724C13.8277 25.6236 15.7976 25.828 17.701 25.4597C19.6044 25.0914 21.3559 24.167 22.734 22.8034C24.1121 21.4398 25.055 19.6982 25.4434 17.7988C25.4828 17.6047 25.56 17.4203 25.6707 17.2561C25.7814 17.0918 25.9234 16.951 26.0885 16.8416C26.2536 16.7322 26.4387 16.6564 26.6331 16.6186C26.8275 16.5807 27.0274 16.5815 27.2215 16.6209C27.4156 16.6603 27.6001 16.7376 27.7643 16.8483C27.9286 16.959 28.0694 17.1009 28.1788 17.2661C28.2881 17.4312 28.3639 17.6162 28.4018 17.8106C28.4397 18.005 28.4389 18.205 28.3994 18.3991C28.0338 20.1983 27.2842 21.8975 26.202 23.3807L25.9049 23.7728L31.4128 29.2807C31.6862 29.5515 31.8457 29.9165 31.8588 30.3011C31.8718 30.6856 31.7374 31.0606 31.483 31.3493C31.2286 31.638 30.8735 31.8186 30.4904 31.854C30.1072 31.8895 29.725 31.7771 29.422 31.54L29.2802 31.4133L23.7723 25.9054C22.1667 27.1707 20.2819 28.0337 18.2749 28.4224C16.268 28.8111 14.1972 28.7143 12.2354 28.1399C10.2735 27.5656 8.47741 26.5304 6.99698 25.1207C5.51654 23.711 4.39469 21.9678 3.72501 20.0364C3.05532 18.1049 2.85723 16.0414 3.14726 14.0178C3.43729 11.9943 4.20703 10.0695 5.39225 8.40389C6.57748 6.73834 8.14383 5.38037 9.96061 4.44328C11.7774 3.50619 13.7919 3.01716 15.8362 3.01699ZM28.6558 1.50879C28.938 1.50879 29.2145 1.58794 29.4539 1.73724C29.6933 1.88654 29.886 2.10001 30.0102 2.35338L30.0826 2.52984L30.2787 3.09994C30.4856 3.70651 30.819 4.2622 31.2569 4.73021C31.6947 5.19822 32.227 5.56788 32.8185 5.81469L33.0975 5.92026L33.6676 6.11482C33.9499 6.21114 34.1973 6.38901 34.3785 6.62595C34.5598 6.86288 34.6667 7.14823 34.6857 7.44592C34.7048 7.74361 34.6351 8.04026 34.4856 8.29836C34.336 8.55646 34.1133 8.76442 33.8455 8.89594L33.6676 8.96833L33.0975 9.1644C32.4909 9.37132 31.9352 9.70475 31.4672 10.1426C30.9992 10.5805 30.6295 11.1127 30.3827 11.7042L30.2771 11.9832L30.0826 12.5533C29.9861 12.8356 29.8081 13.0828 29.5711 13.2639C29.334 13.445 29.0487 13.5517 28.751 13.5706C28.4533 13.5895 28.1567 13.5197 27.8987 13.37C27.6407 13.2204 27.4329 12.9976 27.3015 12.7298L27.2291 12.5533L27.033 11.9832C26.8261 11.3766 26.4927 10.821 26.0548 10.3529C25.617 9.88493 25.0847 9.51528 24.4932 9.26846L24.2142 9.16289L23.6441 8.96833C23.3618 8.87201 23.1144 8.69414 22.9331 8.45721C22.7519 8.22027 22.645 7.93492 22.626 7.63723C22.6069 7.33954 22.6766 7.04289 22.8261 6.78479C22.9757 6.52669 23.1984 6.31873 23.4661 6.18722L23.6441 6.11482L24.2142 5.91876C24.8208 5.71183 25.3765 5.3784 25.8445 4.94055C26.3125 4.5027 26.6821 3.97042 26.9289 3.37895L27.0345 3.09994L27.2291 2.52984C27.3307 2.2321 27.5229 1.97359 27.7787 1.7905C28.0345 1.60742 28.3412 1.50891 28.6558 1.50879ZM28.6558 6.32899C28.299 6.77792 27.8922 7.18474 27.4432 7.54158C27.8927 7.89751 28.2984 8.30472 28.6558 8.75417C29.0118 8.30472 29.419 7.89751 29.8684 7.54158C29.4195 7.18474 29.0127 6.77792 28.6558 6.32899Z" fill="#B2B2B2"/>
</g>
<defs>
<clipPath id="clip0_82_408">
<rect width="36.1967" height="36.1967" fill="white"/>
</clipPath>
</defs>
</svg>
