<svg width="20" height="20" viewBox="0 0 20 20" fill="none" xmlns="http://www.w3.org/2000/svg">
<g clip-path="url(#clip0_82_242)">
<path fill-rule="evenodd" clip-rule="evenodd" d="M13.3333 11.6665C14.4071 11.6666 15.4393 12.0811 16.2148 12.8237C16.9903 13.5663 17.4492 14.5796 17.4958 15.6523L17.5 15.8332V17.4998C17.4998 17.7122 17.4184 17.9165 17.2726 18.071C17.1268 18.2254 16.9275 18.3184 16.7155 18.3308C16.5035 18.3433 16.2947 18.2743 16.1318 18.1379C15.9689 18.0016 15.8643 17.8083 15.8392 17.5973L15.8333 17.4998V15.8332C15.8334 15.1955 15.5897 14.5819 15.1523 14.118C14.7148 13.654 14.1166 13.3747 13.48 13.3373L13.3333 13.3332H6.66667C6.02899 13.3331 5.4154 13.5768 4.95145 14.0142C4.48749 14.4517 4.20824 15.0499 4.17083 15.6865L4.16667 15.8332V17.4998C4.16643 17.7122 4.0851 17.9165 3.93929 18.071C3.79349 18.2254 3.59421 18.3184 3.38217 18.3308C3.17014 18.3433 2.96135 18.2743 2.79847 18.1379C2.6356 18.0016 2.53092 17.8083 2.50583 17.5973L2.5 17.4998V15.8332C2.50006 14.7595 2.91462 13.7272 3.65722 12.9517C4.39982 12.1762 5.41313 11.7173 6.48583 11.6707L6.66667 11.6665H13.3333ZM10 1.6665C11.1051 1.6665 12.1649 2.10549 12.9463 2.88689C13.7277 3.66829 14.1667 4.7281 14.1667 5.83317C14.1667 6.93824 13.7277 7.99805 12.9463 8.77945C12.1649 9.56085 11.1051 9.99984 10 9.99984C8.89493 9.99984 7.83512 9.56085 7.05372 8.77945C6.27232 7.99805 5.83333 6.93824 5.83333 5.83317C5.83333 4.7281 6.27232 3.66829 7.05372 2.88689C7.83512 2.10549 8.89493 1.6665 10 1.6665ZM10 3.33317C9.6717 3.33317 9.34661 3.39784 9.04329 3.52347C8.73998 3.64911 8.46438 3.83326 8.23223 4.0654C8.00009 4.29755 7.81594 4.57315 7.6903 4.87646C7.56466 5.17978 7.5 5.50487 7.5 5.83317C7.5 6.16148 7.56466 6.48657 7.6903 6.78988C7.81594 7.09319 8.00009 7.36879 8.23223 7.60094C8.46438 7.83308 8.73998 8.01723 9.04329 8.14287C9.34661 8.26851 9.6717 8.33317 10 8.33317C10.663 8.33317 11.2989 8.06978 11.7678 7.60094C12.2366 7.1321 12.5 6.49621 12.5 5.83317C12.5 5.17013 12.2366 4.53424 11.7678 4.0654C11.2989 3.59656 10.663 3.33317 10 3.33317Z" fill="#777777"/>
</g>
<defs>
<clipPath id="clip0_82_242">
<rect width="20" height="20" fill="white"/>
</clipPath>
</defs>
</svg>
